<?xml version="1.0" encoding="UTF-8"?>
<svg width="500px" height="381px" viewBox="0 0 500 381" version="1.1" xmlns="http://www.w3.org/2000/svg" xmlns:xlink="http://www.w3.org/1999/xlink">

    <title></title>
    <desc></desc>
    <defs>
        <linearGradient x1="90.4491446%" y1="-33.2971599%" x2="11.4349482%" y2="133.691078%" id="linearGradient-1">
            <stop stop-color="#D9D9D9" offset="0%"></stop>
            <stop stop-color="#A6A6A6" offset="100%"></stop>
        </linearGradient>
        <linearGradient x1="95.0481519%" y1="1.6340039%" x2="7.05015945%" y2="98.5947223%" id="linearGradient-2">
            <stop stop-color="#D9D9D9" offset="0%"></stop>
            <stop stop-color="#A6A6A6" offset="100%"></stop>
        </linearGradient>
    </defs>
    <g id="画板" stroke="none" stroke-width="1" fill="none" fill-rule="evenodd">
        <g id="空页面111" fill-rule="nonzero">
            <g id="Group-4">
                <path d="M168,121.538046 L168,254.011664 L43.7779948,254.011664 L16.9242411,161.445972 C16.1186071,158.668927 17.7167511,155.764592 20.4937955,154.958958 C20.9678353,154.821437 21.4589402,154.75164 21.9525249,154.75164 L37.0443178,154.75164 C38.6920811,154.75164 40.2437041,155.527356 41.2324914,156.84547 L68.4576094,193.138211 L99.8495152,193.138211 L87.6648809,112.109314 C87.2349024,109.249919 89.2043337,106.583355 92.0637288,106.153376 C92.3214335,106.114624 92.5816718,106.095167 92.8422738,106.095167 L105.987611,106.095167 L105.987611,105.107018 C105.987611,102.215475 108.33167,99.8714157 111.223213,99.8714157 L143.15043,99.8714157 C146.041974,99.8714157 148.386033,102.215475 148.386033,105.107018 L148.386033,106.095167 L160.200537,106.095167 C162.627013,106.095167 164.735531,107.762416 165.295047,110.123502 L168,121.538046 Z M325,277.358291 L329.926843,168.274451 L329.926843,163.605469 C329.926843,160.713926 332.270902,158.369867 335.162445,158.369867 L341.940415,158.369867 C344.831958,158.369867 347.176017,160.713926 347.176017,163.605469 L347.176017,168.274451 L347.401629,168.274451 C350.293173,168.274451 352.637231,170.618509 352.637231,173.510053 L352.637231,200.753865 L357.252058,200.753865 L357.252058,146.622439 C357.252058,143.730896 359.596117,141.386837 362.48766,141.386837 L366.591541,141.386837 L366.591541,119.187951 C372.067533,112.26304 377.665446,112.26304 383.385278,119.187951 C383.385278,119.187951 383.385278,126.587579 383.385278,141.386837 L390.203644,141.386837 C393.095187,141.386837 395.439246,143.730896 395.439246,146.622439 L395.439246,161.329046 L401.644072,161.329046 L415.20983,92.4771381 C415.693368,90.0229785 417.845334,88.2536386 420.346675,88.2536386 L421.648287,88.2536386 L421.648287,85.2441309 C421.648287,82.3525877 423.992346,80.0085288 426.883889,80.0085288 C427.422578,80.0085288 427.95804,80.091664 428.471369,80.2549991 L449.072396,86.8099917 C451.64481,87.628502 453.173199,90.2686844 452.60195,92.9070452 L439.211583,154.75164 L430.377599,194.029991 L441.926781,182.237456 C442.911599,181.231887 444.259813,180.665187 445.667305,180.665187 L449.500641,180.665187 C452.173034,180.665187 454.339437,182.83159 454.339437,185.503983 C454.339437,185.857534 454.300688,186.210021 454.223885,186.55513 L439.211583,254.011664 L325,254.011664 L325,277.358291 Z" id="形状结合" fill="#BBBBBB" opacity="0.149999991"></path>
                <g id="Oval" transform="translate(0.000000, 200.319588)" fill="#E9E9E9">
                    <g id="形状结合">
                        <path d="M222.123813,179.957627 C99.4482185,179.957627 8.52651283e-14,148.554718 8.52651283e-14,95.7265132 C8.52651283e-14,42.8983084 99.4482185,0.0725868835 222.123813,0.0725868835 C344.799408,0.0725868835 472.779138,42.8983084 472.779138,95.7265132 C472.779138,148.554718 344.799408,179.957627 222.123813,179.957627 Z M127.406628,145.190975 C133.890462,150.905838 142.065073,153.76327 151.930461,153.76327 C167.895718,153.76327 150.346123,143.785395 179.81211,143.785395 C199.404396,143.785395 187.611203,141.248236 144.432531,136.173919 L144.432529,136.173939 C144.208024,136.147555 143.980513,136.179765 143.772155,136.267431 L127.764483,143.002609 C127.098179,143.282954 126.785298,144.050364 127.065642,144.716667 C127.142122,144.898439 127.258687,145.060579 127.406628,145.190975 Z M272.677679,57.2699121 C276.643755,60.4991609 281.565223,62.1137852 287.442084,62.1137852 C297.468433,62.1137852 286.447103,55.8475757 304.952051,55.8475757 C317.236898,55.8475757 309.873165,54.2592118 282.860854,51.0824841 C282.636311,51.0560691 282.408756,51.0882755 282.20036,51.1759574 L272.9965,55.0484381 C272.330187,55.3287868 272.0173,56.096208 272.297649,56.7625213 C272.380837,56.9602361 272.511341,57.1344764 272.677679,57.2699121 Z M455.742601,89.0973027 C455.838896,88.9999505 455.919318,88.8880913 455.980933,88.7658066 C456.306222,88.120225 456.046573,87.3331793 455.400991,87.0078907 L446.701649,82.6245951 C446.463417,82.5045576 446.194195,82.4601782 445.930041,82.4974004 C420.92064,86.0215137 414.112577,87.7835704 425.505854,87.7835704 C442.687846,87.7835704 432.454453,94.7512511 441.763998,94.7512511 C447.354733,94.7512511 452.014268,92.8666016 455.742601,89.0973027 Z M95.236087,33.3475234 C95.3975778,33.2264176 95.5288704,33.0696022 95.6197008,32.8893364 C95.9449828,32.2437678 95.6853393,31.4567378 95.0397707,31.1314557 L92.5279753,29.8658445 C92.289554,29.7457114 92.0200984,29.7013578 91.7557506,29.7387329 L91.7557538,29.7387553 C81.2692676,31.2213992 78.4403399,31.9627211 83.2689705,31.9627211 C90.6045969,31.9627211 86.2355841,34.9374812 90.2101721,34.9374812 C92.1473419,34.9374812 93.8226469,34.4074953 95.236087,33.3475234 Z M367.743314,58.5693583 C369.818746,62.5967195 372.440529,64.6104 375.608662,64.6104 C380.703956,64.6104 375.103022,57.665578 384.50706,57.665578 C390.671362,57.665578 387.100731,55.9493243 373.795167,52.5168168 L373.795161,52.5168401 C373.365958,52.4061163 372.909879,52.5201414 372.583283,52.8198238 L368.02186,57.0053942 C367.587094,57.4043313 367.473017,58.0448481 367.743314,58.5693583 Z" id="path-1"></path>
                    </g>
                </g>
                <g id="Group-3" transform="translate(89.712042, 28.494845)" fill="url(#linearGradient-2)">
                    <g id="Rectangle-10-Copy-2" transform="translate(133.782136, 139.447677) rotate(-8.000000) translate(-133.782136, -139.447677) translate(16.282136, 15.447677)">
                        <g id="形状结合">
                            <path d="M90.0529652,173.023304 L26.2997207,243.853874 C22.9551009,247.569523 17.87875,248.799259 13.3953331,247.420915 C10.3555251,247.476812 7.28831205,246.424755 4.85034933,244.230237 C4.84946508,244.229441 4.84858094,244.228645 4.84769692,244.227849 L4.37006355,243.788029 C-0.731719596,239.193037 -1.14367078,231.332657 3.44984889,226.229548 L3.44718138,226.227146 L68.6494227,153.791592 C55.4591813,137.657437 47.5462802,117.03827 47.5462802,94.5704122 C47.5462802,42.8691579 89.4463331,0.957010125 141.132668,0.957010125 C192.819002,0.957010125 234.719055,42.8691579 234.719055,94.5704122 C234.719055,146.271667 192.819002,188.183814 141.132668,188.183814 C122.285937,188.183814 104.740389,182.611181 90.0529652,173.023304 Z M141.132668,166.786465 C181.004983,166.786465 213.327881,134.454237 213.327881,94.5704122 C213.327881,54.6865874 181.004983,22.3543592 141.132668,22.3543592 C101.260352,22.3543592 68.9374545,54.6865874 68.9374545,94.5704122 C68.9374545,134.454237 101.260352,166.786465 141.132668,166.786465 Z M150.87876,46.3458541 C160.20168,47.4905647 167.329075,50.8607752 172.37111,56.7635502 C177.157309,62.3413743 179.090644,69.4769102 178.025444,78.1522718 C177.226543,84.658793 174.640445,90.0652587 170.412819,94.389555 C168.743073,95.9457663 164.348379,99.2221649 157.246491,104.074161 C153.704423,106.427865 151.199804,108.762182 149.423538,111.185929 C147.139246,114.134376 145.839142,117.497204 145.359802,121.401117 L144.951475,124.726672 L133.297825,123.295784 L133.706151,119.970228 C134.292012,115.198779 135.680882,111.113005 137.872763,107.712904 C140.444752,103.625628 145.92651,98.7214742 154.644884,92.7470345 C157.259668,90.7197824 159.220756,89.1993433 160.236806,88.1499451 C163.594052,84.8929331 165.512345,81.3124708 166.009439,77.2639687 C166.719573,71.4803943 165.521879,66.7834909 162.707698,63.2090307 C159.783354,59.3275056 155.17151,57.1467812 149.053344,56.3955649 C141.769812,55.5012597 136.095945,57.1529036 132.01399,61.495086 C128.312143,65.1500938 126.035139,70.4477423 125.165225,77.5326209 L113.657245,76.1196187 C114.899979,65.9983635 118.661908,58.2411953 125.234374,52.8838863 C131.842346,47.2373987 140.390475,45.0580546 150.87876,46.3458541 Z M137.881916,134.132483 C140.358316,134.436547 142.454609,135.427785 143.989617,137.377491 C145.396707,139.164721 146.022184,141.296288 145.720377,143.754307 C145.400817,146.356916 144.278246,148.27385 142.334912,149.6497 C140.391578,151.02555 138.245669,151.642681 135.769268,151.338617 C133.292868,151.034553 131.359999,149.916611 129.807238,148.111495 C128.272231,146.16179 127.792424,144.048108 128.094231,141.590089 C128.396038,139.13207 129.372938,137.197249 131.316272,135.8214 C133.27736,134.30096 135.405515,133.828419 137.881916,134.132483 Z" id="path-4"></path>
                        </g>
                    </g>
                </g>
                <path d="M79.6479893,64.1447398 L79.6479893,64.1546392 L55.5864988,64.1546392 L55.5864988,64.0646878 C50.8049218,63.4158183 47.1204188,59.3353467 47.1204188,54.3984037 C47.1204188,49.7293949 50.4158488,45.8264165 54.8180996,44.8676749 C55.5635181,40.2152779 59.6136432,36.6597938 64.498162,36.6597938 C69.756366,36.6597938 74.0476238,40.7801052 74.2901748,45.9536154 C75.7344822,45.1196491 77.4124171,44.6421683 79.2024061,44.6421683 C84.6163594,44.6421683 89.0052356,49.0101837 89.0052356,54.3984037 C89.0052356,59.6380024 84.8551339,63.9129002 79.6479893,64.1447398 Z" id="Combined-Shape" fill="#E9E9E9"></path>
                <path d="M494.151721,124.375315 L494.151721,124.381443 L479.11329,124.381443 L479.11329,124.325759 C476.124804,123.924078 473.82199,121.398072 473.82199,118.341869 C473.82199,115.45153 475.881633,113.035401 478.63304,112.441894 C479.098927,109.561839 481.630255,107.360825 484.683079,107.360825 C487.969457,107.360825 490.651493,109.911494 490.803087,113.114143 C491.705779,112.597878 492.754488,112.302295 493.873232,112.302295 C497.256952,112.302295 500,115.006304 500,118.341869 C500,121.58543 497.406186,124.231795 494.151721,124.375315 Z" id="Combined-Shape-Copy-2" fill="#E9E9E9"></path>
                <path d="M373.732873,17.0144904 L358.694441,17.0206186 L358.694441,16.9649344 C355.705956,16.5632533 353.403141,14.037247 353.403141,10.9810442 C353.403141,8.09070541 355.462785,5.67457594 358.214192,5.08106927 C358.680078,2.20101394 361.211407,0 364.264231,0 C367.550608,0 370.232644,2.55066895 370.384239,5.75331813 C371.286931,5.23705326 372.33564,4.9414699 373.454383,4.9414699 C376.838104,4.9414699 379.581152,7.64547943 379.581152,10.9810442 C379.581152,14.2246053 376.987338,16.8709706 373.732873,17.0144904 Z" id="Combined-Shape-Copy-3" fill="#E9E9E9"></path>
            </g>
            <g id="空箱子" transform="translate(303.000000, 269.000000)">
                <polygon id="路径" fill="#BFBFBF" points="30.1042043 0.783952569 4.09178782 7.67925692 4.09178782 22.9474308 30.1042043 16.0595889 56.1618861 22.9474308 56.1618861 7.67925692"></polygon>
                <path d="M29.9533202,41.9617549 L5.60062868,35.5216601 C4.65005894,35.2753992 4.00125737,34.4321423 4.00125737,33.4918735 L4.00125737,7.61209486 L29.9608644,14.4999368 L29.9608644,41.9617549 L29.9533202,41.9617549 Z" id="路径" fill="#CDCDCD"></path>
                <path d="M23.4351277,28.3726324 L1.63237721,22.5743083 C0.425304519,22.2758103 -0.223497053,21.0370435 0.13108055,19.8952885 L4.08424361,7.64940711 L30.0438507,14.537249 L26.030334,26.9771542 C25.6908448,28.0293597 24.5441257,28.6711304 23.4351277,28.3726324" id="路径" fill="#E6E6E6"></path>
                <path d="M29.9533202,41.9617549 L54.5625147,35.5664348 C55.5130845,35.3201739 56.1618861,34.476917 56.1618861,33.5366482 L56.1618861,7.66433202 L29.9533202,14.5073992 L29.9533202,41.9617549 Z" id="路径" fill="#CDCDCD"></path>
                <path d="M36.2150098,28.283083 L58.3647937,22.5295336 C59.519057,22.2310356 60.220668,20.9922688 59.8660904,19.8505138 L56.1618861,7.66433202 L29.8552456,14.5073992 L33.6122593,26.8502925 C33.9592927,27.9398103 35.113556,28.581581 36.2150098,28.283083" id="路径" fill="#DBDBDB"></path>
            </g>
            <g id="空箱子复制" transform="translate(282.000000, 229.000000)">
                <polygon id="路径" fill="#BFBFBF" points="9.0312613 0.242651986 1.22753635 2.37691286 1.22753635 7.10277621 9.0312613 4.97082515 16.8485658 7.10277621 16.8485658 2.37691286"></polygon>
                <path d="M8.98599607,12.9881622 L1.68018861,10.9947995 C1.39501768,10.9185759 1.20037721,10.6575679 1.20037721,10.3665323 L1.20037721,2.3561246 L8.98825933,4.48807566 L8.98825933,12.9881622 L8.98599607,12.9881622 Z" id="路径" fill="#CDCDCD"></path>
                <path d="M7.03053831,8.78200527 L0.489713163,6.9872859 C0.127591356,6.89489366 -0.0670491159,6.51146584 0.039324165,6.1580655 L1.22527308,2.36767363 L9.01315521,4.49962469 L7.8091002,8.35007152 C7.70725344,8.67575419 7.36323772,8.87439752 7.03053831,8.78200527" id="路径" fill="#E6E6E6"></path>
                <path d="M8.98599607,12.9881622 L16.3687544,11.0086584 C16.6539253,10.9324348 16.8485658,10.6714267 16.8485658,10.3803911 L16.8485658,2.37229324 L8.98599607,4.49038547 L8.98599607,12.9881622 Z" id="路径" fill="#CDCDCD"></path>
                <path d="M10.8645029,8.7542876 L17.5094381,6.97342707 C17.8557171,6.88103482 18.0662004,6.497607 17.9598271,6.14420666 L16.8485658,2.37229324 L8.95657367,4.49038547 L10.0836778,8.31080482 C10.1877878,8.64803651 10.5340668,8.84667984 10.8645029,8.7542876" id="路径" fill="#DBDBDB"></path>
            </g>
            <g id="空箱子复制-2" transform="translate(100.000000, 242.000000)">
                <polygon id="路径" fill="#BFBFBF" points="11.0382083 0.298648598 1.5003222 2.92543121 1.5003222 8.74187841 11.0382083 6.11793864 20.5926916 8.74187841 20.5926916 2.92543121"></polygon>
                <path d="M10.9828841,15.9854305 L2.05356385,13.532061 C1.70502161,13.4382473 1.4671277,13.1170066 1.4671277,12.758809 L1.4671277,2.89984566 L10.9856503,5.52378543 L10.9856503,15.9854305 L10.9828841,15.9854305 Z" id="路径" fill="#CDCDCD"></path>
                <path d="M8.59288016,10.8086219 L0.59853831,8.5997365 C0.15594499,8.48602296 -0.0819489194,8.0141118 0.0480628684,7.57915754 L1.49755599,2.91405985 L11.0160786,5.53799962 L9.5444558,10.2770111 C9.41997642,10.6778513 8.99951277,10.9223354 8.59288016,10.8086219" id="路径" fill="#E6E6E6"></path>
                <path d="M10.9828841,15.9854305 L20.0062554,13.549118 C20.3547976,13.4553043 20.5926916,13.1340636 20.5926916,12.775866 L20.5926916,2.91974553 L10.9828841,5.52662827 L10.9828841,15.9854305 Z" id="路径" fill="#CDCDCD"></path>
                <path d="M13.2788369,10.7745078 L21.4004244,8.58267947 C21.8236542,8.46896593 22.0809116,7.99705477 21.9508998,7.56210051 L20.5926916,2.91974553 L10.9469234,5.52662827 L12.3244951,10.2286829 C12.4517407,10.6437372 12.8749705,10.8882213 13.2788369,10.7745078" id="路径" fill="#DBDBDB"></path>
            </g>
        </g>
    </g>
</svg>